<?xml version="1.0" encoding="UTF-8" standalone="no"?>
<!DOCTYPE svg PUBLIC "-//W3C//DTD SVG 1.1//EN"
 "http://www.w3.org/Graphics/SVG/1.1/DTD/svg11.dtd">
<!-- Generated by graphviz version 2.43.0 (0)
 -->
<!-- Title: G Pages: 1 -->
<svg width="1325pt" height="899pt"
 viewBox="0.00 0.00 1324.82 899.24" xmlns="http://www.w3.org/2000/svg" xmlns:xlink="http://www.w3.org/1999/xlink">
<g id="graph0" class="graph" transform="scale(1 1) rotate(0) translate(4 895.24)">
<title>G</title><style>.edge>path:hover{stroke-width:8}</style>
<polygon fill="white" stroke="transparent" points="-4,4 -4,-895.24 1320.82,-895.24 1320.82,4 -4,4"/>
<!-- cc_net___main__ -->
<g id="node1" class="node">
<title>cc_net___main__</title><style>.edge>path:hover{stroke-width:8}</style>
<ellipse fill="#a46746" stroke="black" cx="1117.67" cy="-28.99" rx="43.68" ry="21.43"/>
<text text-anchor="middle" x="1117.67" y="-31.99" font-family="Helvetica,sans-Serif" font-size="10.00" fill="#ffffff">cc_net.</text>
<text text-anchor="middle" x="1117.67" y="-20.99" font-family="Helvetica,sans-Serif" font-size="10.00" fill="#ffffff">__main__</text>
</g>
<!-- cc_net_dedup -->
<g id="node2" class="node">
<title>cc_net_dedup</title><style>.edge>path:hover{stroke-width:8}</style>
<ellipse fill="#ac582b" stroke="black" cx="306.67" cy="-209.18" rx="47.86" ry="18"/>
<text text-anchor="middle" x="306.67" y="-206.68" font-family="Helvetica,sans-Serif" font-size="10.00" fill="#ffffff">cc_net.dedup</text>
</g>
<!-- cc_net_mine -->
<g id="node7" class="node">
<title>cc_net_mine</title><style>.edge>path:hover{stroke-width:8}</style>
<ellipse fill="#7a4528" stroke="black" cx="880.67" cy="-122.97" rx="44.98" ry="18"/>
<text text-anchor="middle" x="880.67" y="-120.47" font-family="Helvetica,sans-Serif" font-size="10.00" fill="#ffffff">cc_net.mine</text>
</g>
<!-- cc_net_dedup&#45;&gt;cc_net_mine -->
<g id="edge4" class="edge">
<title>cc_net_dedup&#45;&gt;cc_net_mine</title><style>.edge>path:hover{stroke-width:8}</style>
<path fill="none" stroke="black" d="M337.9,-195.45C346.15,-192.54 355.14,-189.78 363.67,-187.97 563.38,-145.48 624.38,-204.6 821.67,-151.97 830.17,-149.7 838.94,-146.23 847.03,-142.5"/>
<polygon fill="#ac582b" stroke="black" points="848.71,-145.58 856.17,-138.06 845.65,-139.28 848.71,-145.58"/>
</g>
<!-- cc_net_tools_expand_corpus -->
<g id="node16" class="node">
<title>cc_net_tools_expand_corpus</title><style>.edge>path:hover{stroke-width:8}</style>
<ellipse fill="#794c34" stroke="black" cx="807.67" cy="-28.99" rx="63.78" ry="28.98"/>
<text text-anchor="middle" x="807.67" y="-37.49" font-family="Helvetica,sans-Serif" font-size="10.00" fill="#ffffff">cc_net.</text>
<text text-anchor="middle" x="807.67" y="-26.49" font-family="Helvetica,sans-Serif" font-size="10.00" fill="#ffffff">tools.</text>
<text text-anchor="middle" x="807.67" y="-15.49" font-family="Helvetica,sans-Serif" font-size="10.00" fill="#ffffff">expand_corpus</text>
</g>
<!-- cc_net_dedup&#45;&gt;cc_net_tools_expand_corpus -->
<g id="edge5" class="edge">
<title>cc_net_dedup&#45;&gt;cc_net_tools_expand_corpus</title><style>.edge>path:hover{stroke-width:8}</style>
<path fill="none" stroke="black" d="M279.94,-194.06C248.14,-175.77 202.65,-143.88 230.67,-123.97"/>
</g>
<!-- cc_net_execution -->
<g id="node3" class="node">
<title>cc_net_execution</title><style>.edge>path:hover{stroke-width:8}</style>
<ellipse fill="#c46531" stroke="black" cx="831.67" cy="-287.61" rx="45.01" ry="21.43"/>
<text text-anchor="middle" x="831.67" y="-290.61" font-family="Helvetica,sans-Serif" font-size="10.00" fill="#ffffff">cc_net.</text>
<text text-anchor="middle" x="831.67" y="-279.61" font-family="Helvetica,sans-Serif" font-size="10.00" fill="#ffffff">execution</text>
</g>
<!-- cc_net_execution&#45;&gt;cc_net_mine -->
<g id="edge6" class="edge">
<title>cc_net_execution&#45;&gt;cc_net_mine</title><style>.edge>path:hover{stroke-width:8}</style>
<path fill="none" stroke="black" d="M837.77,-266.34C846.57,-237.14 862.82,-183.2 872.6,-150.75"/>
<polygon fill="#c46531" stroke="black" points="875.99,-151.62 875.53,-141.03 869.29,-149.6 875.99,-151.62"/>
</g>
<!-- cc_net_minify -->
<g id="node8" class="node">
<title>cc_net_minify</title><style>.edge>path:hover{stroke-width:8}</style>
<ellipse fill="#a15b35" stroke="black" cx="918.67" cy="-209.18" rx="48.04" ry="18"/>
<text text-anchor="middle" x="918.67" y="-206.68" font-family="Helvetica,sans-Serif" font-size="10.00" fill="#ffffff">cc_net.minify</text>
</g>
<!-- cc_net_execution&#45;&gt;cc_net_minify -->
<g id="edge7" class="edge">
<title>cc_net_execution&#45;&gt;cc_net_minify</title><style>.edge>path:hover{stroke-width:8}</style>
<path fill="none" stroke="black" d="M852.28,-268.49C864.43,-257.82 879.91,-244.22 892.87,-232.84"/>
<polygon fill="#c46531" stroke="black" points="895.35,-235.32 900.56,-226.09 890.73,-230.06 895.35,-235.32"/>
</g>
<!-- cc_net_flat_hash_set -->
<g id="node4" class="node">
<title>cc_net_flat_hash_set</title><style>.edge>path:hover{stroke-width:8}</style>
<ellipse fill="#c06d40" stroke="black" cx="487.67" cy="-438.03" rx="57.05" ry="21.43"/>
<text text-anchor="middle" x="487.67" y="-441.03" font-family="Helvetica,sans-Serif" font-size="10.00" fill="#000000">cc_net.</text>
<text text-anchor="middle" x="487.67" y="-430.03" font-family="Helvetica,sans-Serif" font-size="10.00" fill="#000000">flat_hash_set</text>
</g>
<!-- cc_net_flat_hash_set&#45;&gt;cc_net_dedup -->
<g id="edge8" class="edge">
<title>cc_net_flat_hash_set&#45;&gt;cc_net_dedup</title><style>.edge>path:hover{stroke-width:8}</style>
<path fill="none" stroke="black" d="M492.81,-416.89C500.39,-382.14 510.21,-310.44 475.67,-266.39 443.4,-225.25 413.2,-247.13 363.67,-230.39 359.12,-228.86 354.38,-227.22 349.66,-225.58"/>
<polygon fill="#c06d40" stroke="black" points="350.66,-222.22 340.06,-222.21 348.34,-228.82 350.66,-222.22"/>
</g>
<!-- cc_net_get_wiki_cirrus -->
<g id="node5" class="node">
<title>cc_net_get_wiki_cirrus</title><style>.edge>path:hover{stroke-width:8}</style>
<ellipse fill="#965e40" stroke="black" cx="750.67" cy="-209.18" rx="63.78" ry="21.43"/>
<text text-anchor="middle" x="750.67" y="-212.18" font-family="Helvetica,sans-Serif" font-size="10.00" fill="#ffffff">cc_net.</text>
<text text-anchor="middle" x="750.67" y="-201.18" font-family="Helvetica,sans-Serif" font-size="10.00" fill="#ffffff">get_wiki_cirrus</text>
</g>
<!-- cc_net_jsonql -->
<g id="node6" class="node">
<title>cc_net_jsonql</title><style>.edge>path:hover{stroke-width:8}</style>
<ellipse fill="#e55405" stroke="black" cx="645.67" cy="-287.61" rx="47.19" ry="18"/>
<text text-anchor="middle" x="645.67" y="-285.11" font-family="Helvetica,sans-Serif" font-size="10.00" fill="#ffffff">cc_net.jsonql</text>
</g>
<!-- cc_net_jsonql&#45;&gt;cc_net_dedup -->
<g id="edge9" class="edge">
<title>cc_net_jsonql&#45;&gt;cc_net_dedup</title><style>.edge>path:hover{stroke-width:8}</style>
<path fill="none" stroke="black" d="M602.7,-280.02C547.02,-271.04 447.17,-253.39 363.67,-230.39 358.73,-229.03 353.61,-227.46 348.55,-225.8"/>
<polygon fill="#e55405" stroke="black" points="349.56,-222.45 338.96,-222.54 347.3,-229.07 349.56,-222.45"/>
</g>
<!-- cc_net_jsonql&#45;&gt;cc_net_get_wiki_cirrus -->
<g id="edge10" class="edge">
<title>cc_net_jsonql&#45;&gt;cc_net_get_wiki_cirrus</title><style>.edge>path:hover{stroke-width:8}</style>
<path fill="none" stroke="black" d="M666.66,-271.32C681.03,-260.86 700.4,-246.76 716.92,-234.74"/>
<polygon fill="#e55405" stroke="black" points="719.23,-237.39 725.26,-228.67 715.11,-231.73 719.23,-237.39"/>
</g>
<!-- cc_net_jsonql&#45;&gt;cc_net_mine -->
<g id="edge11" class="edge">
<title>cc_net_jsonql&#45;&gt;cc_net_mine</title><style>.edge>path:hover{stroke-width:8}</style>
<path fill="none" stroke="black" d="M526.67,-208.18C527.74,-195.9 534.69,-193.58 545.67,-187.97 655.79,-131.61 703,-186.91 821.67,-151.97 829.95,-149.53 838.53,-146.06 846.5,-142.39"/>
<polygon fill="#e55405" stroke="black" points="848.02,-145.54 855.51,-138.05 844.98,-139.24 848.02,-145.54"/>
</g>
<!-- cc_net_jsonql&#45;&gt;cc_net_minify -->
<g id="edge12" class="edge">
<title>cc_net_jsonql&#45;&gt;cc_net_minify</title><style>.edge>path:hover{stroke-width:8}</style>
<path fill="none" stroke="black" d="M682.48,-276.3C731.3,-262.63 817.5,-238.5 871.17,-223.48"/>
<polygon fill="#e55405" stroke="black" points="872.43,-226.76 881.12,-220.69 870.55,-220.02 872.43,-226.76"/>
</g>
<!-- cc_net_perplexity -->
<g id="node9" class="node">
<title>cc_net_perplexity</title><style>.edge>path:hover{stroke-width:8}</style>
<ellipse fill="#9b5026" stroke="black" cx="155.67" cy="-209.18" rx="46.84" ry="21.43"/>
<text text-anchor="middle" x="155.67" y="-212.18" font-family="Helvetica,sans-Serif" font-size="10.00" fill="#ffffff">cc_net.</text>
<text text-anchor="middle" x="155.67" y="-201.18" font-family="Helvetica,sans-Serif" font-size="10.00" fill="#ffffff">perplexity</text>
</g>
<!-- cc_net_jsonql&#45;&gt;cc_net_perplexity -->
<g id="edge13" class="edge">
<title>cc_net_jsonql&#45;&gt;cc_net_perplexity</title><style>.edge>path:hover{stroke-width:8}</style>
<path fill="none" stroke="black" d="M601.26,-281.34C527.84,-272.41 376.65,-253.03 249.67,-230.39 235.65,-227.89 220.54,-224.82 206.62,-221.82"/>
<polygon fill="#e55405" stroke="black" points="207.24,-218.38 196.72,-219.67 205.75,-225.22 207.24,-218.38"/>
</g>
<!-- cc_net_process_wet_file -->
<g id="node10" class="node">
<title>cc_net_process_wet_file</title><style>.edge>path:hover{stroke-width:8}</style>
<ellipse fill="#b45c2d" stroke="black" cx="1214.67" cy="-209.18" rx="69.09" ry="21.43"/>
<text text-anchor="middle" x="1214.67" y="-212.18" font-family="Helvetica,sans-Serif" font-size="10.00" fill="#ffffff">cc_net.</text>
<text text-anchor="middle" x="1214.67" y="-201.18" font-family="Helvetica,sans-Serif" font-size="10.00" fill="#ffffff">process_wet_file</text>
</g>
<!-- cc_net_jsonql&#45;&gt;cc_net_process_wet_file -->
<g id="edge14" class="edge">
<title>cc_net_jsonql&#45;&gt;cc_net_process_wet_file</title><style>.edge>path:hover{stroke-width:8}</style>
<path fill="none" stroke="black" d="M688.09,-279.55C713.94,-275.39 747.65,-270.21 777.67,-266.39 934.54,-246.42 975.8,-257.17 1131.67,-230.39 1138.98,-229.13 1146.61,-227.6 1154.15,-225.93"/>
<polygon fill="#e55405" stroke="black" points="1155.01,-229.33 1163.98,-223.69 1153.45,-222.51 1155.01,-229.33"/>
</g>
<!-- cc_net_regroup -->
<g id="node11" class="node">
<title>cc_net_regroup</title><style>.edge>path:hover{stroke-width:8}</style>
<ellipse fill="#a86038" stroke="black" cx="1037.67" cy="-209.18" rx="52.28" ry="18"/>
<text text-anchor="middle" x="1037.67" y="-206.68" font-family="Helvetica,sans-Serif" font-size="10.00" fill="#ffffff">cc_net.regroup</text>
</g>
<!-- cc_net_jsonql&#45;&gt;cc_net_regroup -->
<g id="edge15" class="edge">
<title>cc_net_jsonql&#45;&gt;cc_net_regroup</title><style>.edge>path:hover{stroke-width:8}</style>
<path fill="none" stroke="black" d="M688.56,-280.1C765.02,-268.37 921.85,-243.67 975.67,-230.39 981.3,-229 987.16,-227.36 992.94,-225.62"/>
<polygon fill="#e55405" stroke="black" points="994.01,-228.95 1002.51,-222.63 991.93,-222.27 994.01,-228.95"/>
</g>
<!-- cc_net_split_by_lang -->
<g id="node12" class="node">
<title>cc_net_split_by_lang</title><style>.edge>path:hover{stroke-width:8}</style>
<ellipse fill="#b0643a" stroke="black" cx="611.67" cy="-209.18" rx="57.05" ry="21.43"/>
<text text-anchor="middle" x="611.67" y="-212.18" font-family="Helvetica,sans-Serif" font-size="10.00" fill="#ffffff">cc_net.</text>
<text text-anchor="middle" x="611.67" y="-201.18" font-family="Helvetica,sans-Serif" font-size="10.00" fill="#ffffff">split_by_lang</text>
</g>
<!-- cc_net_jsonql&#45;&gt;cc_net_split_by_lang -->
<g id="edge16" class="edge">
<title>cc_net_jsonql&#45;&gt;cc_net_split_by_lang</title><style>.edge>path:hover{stroke-width:8}</style>
<path fill="none" stroke="black" d="M638.12,-269.64C634.21,-260.85 629.31,-249.84 624.8,-239.7"/>
<polygon fill="#e55405" stroke="black" points="627.9,-238.06 620.64,-230.35 621.5,-240.91 627.9,-238.06"/>
</g>
<!-- cc_net_tokenizer -->
<g id="node14" class="node">
<title>cc_net_tokenizer</title><style>.edge>path:hover{stroke-width:8}</style>
<ellipse fill="#9d6343" stroke="black" cx="416.67" cy="-209.18" rx="43.68" ry="21.43"/>
<text text-anchor="middle" x="416.67" y="-212.18" font-family="Helvetica,sans-Serif" font-size="10.00" fill="#ffffff">cc_net.</text>
<text text-anchor="middle" x="416.67" y="-201.18" font-family="Helvetica,sans-Serif" font-size="10.00" fill="#ffffff">tokenizer</text>
</g>
<!-- cc_net_jsonql&#45;&gt;cc_net_tokenizer -->
<g id="edge17" class="edge">
<title>cc_net_jsonql&#45;&gt;cc_net_tokenizer</title><style>.edge>path:hover{stroke-width:8}</style>
<path fill="none" stroke="black" d="M611.38,-275.16C571.48,-261.85 505.45,-239.81 461.51,-225.14"/>
<polygon fill="#e55405" stroke="black" points="462.53,-221.8 451.94,-221.95 460.31,-228.44 462.53,-221.8"/>
</g>
<!-- cc_net_tools_dl_cc_100 -->
<g id="node15" class="node">
<title>cc_net_tools_dl_cc_100</title><style>.edge>path:hover{stroke-width:8}</style>
<ellipse fill="#9d6343" stroke="black" cx="1225.67" cy="-28.99" rx="45.92" ry="28.98"/>
<text text-anchor="middle" x="1225.67" y="-37.49" font-family="Helvetica,sans-Serif" font-size="10.00" fill="#ffffff">cc_net.</text>
<text text-anchor="middle" x="1225.67" y="-26.49" font-family="Helvetica,sans-Serif" font-size="10.00" fill="#ffffff">tools.</text>
<text text-anchor="middle" x="1225.67" y="-15.49" font-family="Helvetica,sans-Serif" font-size="10.00" fill="#ffffff">dl_cc_100</text>
</g>
<!-- cc_net_jsonql&#45;&gt;cc_net_tools_dl_cc_100 -->
<g id="edge18" class="edge">
<title>cc_net_jsonql&#45;&gt;cc_net_tools_dl_cc_100</title><style>.edge>path:hover{stroke-width:8}</style>
<path fill="none" stroke="black" d="M807.67,-121.97C821.74,-116.68 813.76,-101.71 826.67,-93.98 958.57,-15.03 1023.25,-101.58 1170.67,-57.98 1174.77,-56.77 1178.93,-55.25 1183.03,-53.56"/>
<polygon fill="#e55405" stroke="black" points="1184.75,-56.62 1192.44,-49.34 1181.88,-50.24 1184.75,-56.62"/>
</g>
<!-- cc_net_jsonql&#45;&gt;cc_net_tools_expand_corpus -->
<g id="edge19" class="edge">
<title>cc_net_jsonql&#45;&gt;cc_net_tools_expand_corpus</title><style>.edge>path:hover{stroke-width:8}</style>
<path fill="none" stroke="black" d="M526.67,-208.18C527.74,-195.9 535.01,-194.18 545.67,-187.97 649.21,-127.58 695.49,-166.21 807.67,-123.97"/>
<path fill="none" stroke="black" d="M807.67,-121.97C827.75,-114.41 826.75,-89.43 821.26,-67.41"/>
<polygon fill="#e55405" stroke="black" points="824.57,-66.25 818.48,-57.57 817.83,-68.15 824.57,-66.25"/>
</g>
<!-- cc_net_tools_make_dmoz_corpus -->
<g id="node17" class="node">
<title>cc_net_tools_make_dmoz_corpus</title><style>.edge>path:hover{stroke-width:8}</style>
<ellipse fill="#965e40" stroke="black" cx="488.67" cy="-122.97" rx="79.81" ry="28.98"/>
<text text-anchor="middle" x="488.67" y="-131.47" font-family="Helvetica,sans-Serif" font-size="10.00" fill="#ffffff">cc_net.</text>
<text text-anchor="middle" x="488.67" y="-120.47" font-family="Helvetica,sans-Serif" font-size="10.00" fill="#ffffff">tools.</text>
<text text-anchor="middle" x="488.67" y="-109.47" font-family="Helvetica,sans-Serif" font-size="10.00" fill="#ffffff">make_dmoz_corpus</text>
</g>
<!-- cc_net_jsonql&#45;&gt;cc_net_tools_make_dmoz_corpus -->
<g id="edge20" class="edge">
<title>cc_net_jsonql&#45;&gt;cc_net_tools_make_dmoz_corpus</title><style>.edge>path:hover{stroke-width:8}</style>
<path fill="none" stroke="black" d="M614.73,-273.98C578.87,-258.33 524.84,-231.15 526.67,-210.18"/>
<path fill="none" stroke="black" d="M526.67,-208.18C528.12,-191.53 522.09,-174.49 514.44,-160.13"/>
<polygon fill="#e55405" stroke="black" points="517.27,-158.02 509.24,-151.11 511.2,-161.52 517.27,-158.02"/>
</g>
<!-- cc_net_mine&#45;&gt;cc_net___main__ -->
<g id="edge21" class="edge">
<title>cc_net_mine&#45;&gt;cc_net___main__</title><style>.edge>path:hover{stroke-width:8}</style>
<path fill="none" stroke="black" d="M911.65,-109.95C953.35,-93.76 1027.72,-64.9 1074.78,-46.64"/>
<polygon fill="#7a4528" stroke="black" points="1076.33,-49.79 1084.38,-42.91 1073.8,-43.26 1076.33,-49.79"/>
</g>
<!-- cc_net_minify&#45;&gt;cc_net_mine -->
<g id="edge22" class="edge">
<title>cc_net_minify&#45;&gt;cc_net_mine</title><style>.edge>path:hover{stroke-width:8}</style>
<path fill="none" stroke="black" d="M910.98,-191.14C905.67,-179.38 898.52,-163.53 892.49,-150.18"/>
<polygon fill="#a15b35" stroke="black" points="895.65,-148.66 888.34,-140.99 889.27,-151.54 895.65,-148.66"/>
</g>
<!-- cc_net_perplexity&#45;&gt;cc_net_mine -->
<g id="edge23" class="edge">
<title>cc_net_perplexity&#45;&gt;cc_net_mine</title><style>.edge>path:hover{stroke-width:8}</style>
<path fill="none" stroke="black" d="M195.69,-198.2C212.29,-194.42 231.81,-190.43 249.67,-187.97 501.99,-153.09 575.04,-215.71 821.67,-151.97 830.19,-149.76 838.96,-146.32 847.06,-142.6"/>
<polygon fill="#9b5026" stroke="black" points="848.74,-145.68 856.19,-138.15 845.67,-139.38 848.74,-145.68"/>
</g>
<!-- cc_net_perplexity&#45;&gt;cc_net_tools_expand_corpus -->
<g id="edge24" class="edge">
<title>cc_net_perplexity&#45;&gt;cc_net_tools_expand_corpus</title><style>.edge>path:hover{stroke-width:8}</style>
<path fill="none" stroke="black" d="M169.14,-188.48C182.79,-169.76 205.45,-141.89 230.67,-123.97"/>
</g>
<!-- cc_net_process_wet_file&#45;&gt;cc_net_mine -->
<g id="edge25" class="edge">
<title>cc_net_process_wet_file&#45;&gt;cc_net_mine</title><style>.edge>path:hover{stroke-width:8}</style>
<path fill="none" stroke="black" d="M1162.48,-195.02C1098,-178.77 989.26,-151.35 927.4,-135.76"/>
<polygon fill="#b45c2d" stroke="black" points="928.08,-132.32 917.53,-133.27 926.37,-139.11 928.08,-132.32"/>
</g>
<!-- cc_net_process_wet_file&#45;&gt;cc_net_tools_dl_cc_100 -->
<g id="edge26" class="edge">
<title>cc_net_process_wet_file&#45;&gt;cc_net_tools_dl_cc_100</title><style>.edge>path:hover{stroke-width:8}</style>
<path fill="none" stroke="black" d="M1256.51,-192.11C1284.39,-178.37 1315.32,-155.77 1311.67,-123.97"/>
<path fill="none" stroke="black" d="M1311.67,-121.97C1308.5,-94.36 1287.27,-71.49 1266.7,-55.46"/>
<polygon fill="#b45c2d" stroke="black" points="1268.7,-52.59 1258.58,-49.45 1264.53,-58.21 1268.7,-52.59"/>
</g>
<!-- cc_net_regroup&#45;&gt;cc_net_mine -->
<g id="edge27" class="edge">
<title>cc_net_regroup&#45;&gt;cc_net_mine</title><style>.edge>path:hover{stroke-width:8}</style>
<path fill="none" stroke="black" d="M1010.68,-193.7C984.33,-179.57 944.13,-158.01 915.41,-142.61"/>
<polygon fill="#a86038" stroke="black" points="916.99,-139.48 906.52,-137.84 913.68,-145.65 916.99,-139.48"/>
</g>
<!-- cc_net_split_by_lang&#45;&gt;cc_net_mine -->
<g id="edge28" class="edge">
<title>cc_net_split_by_lang&#45;&gt;cc_net_mine</title><style>.edge>path:hover{stroke-width:8}</style>
<path fill="none" stroke="black" d="M654.17,-194.8C661.97,-192.45 670.05,-190.08 677.67,-187.97 741.23,-170.3 759.56,-174.21 821.67,-151.97 829.56,-149.14 837.81,-145.61 845.56,-142.02"/>
<polygon fill="#b0643a" stroke="black" points="847.19,-145.12 854.71,-137.65 844.17,-138.8 847.19,-145.12"/>
</g>
<!-- cc_net_text_normalizer -->
<g id="node13" class="node">
<title>cc_net_text_normalizer</title><style>.edge>path:hover{stroke-width:8}</style>
<ellipse fill="#f36416" stroke="black" cx="400.67" cy="-287.61" rx="66.44" ry="21.43"/>
<text text-anchor="middle" x="400.67" y="-290.61" font-family="Helvetica,sans-Serif" font-size="10.00" fill="#000000">cc_net.</text>
<text text-anchor="middle" x="400.67" y="-279.61" font-family="Helvetica,sans-Serif" font-size="10.00" fill="#000000">text_normalizer</text>
</g>
<!-- cc_net_text_normalizer&#45;&gt;cc_net_dedup -->
<g id="edge29" class="edge">
<title>cc_net_text_normalizer&#45;&gt;cc_net_dedup</title><style>.edge>path:hover{stroke-width:8}</style>
<path fill="none" stroke="black" d="M377.43,-267.71C364.16,-256.92 347.46,-243.34 333.61,-232.09"/>
<polygon fill="#f36416" stroke="black" points="335.81,-229.36 325.84,-225.77 331.39,-234.79 335.81,-229.36"/>
</g>
<!-- cc_net_text_normalizer&#45;&gt;cc_net_get_wiki_cirrus -->
<g id="edge30" class="edge">
<title>cc_net_text_normalizer&#45;&gt;cc_net_get_wiki_cirrus</title><style>.edge>path:hover{stroke-width:8}</style>
<path fill="none" stroke="black" d="M457.15,-276.34C513.31,-265.85 601.79,-248.57 677.67,-230.39 682.94,-229.13 688.41,-227.75 693.88,-226.32"/>
<polygon fill="#f36416" stroke="black" points="694.9,-229.67 703.67,-223.71 693.1,-222.9 694.9,-229.67"/>
</g>
<!-- cc_net_text_normalizer&#45;&gt;cc_net_perplexity -->
<g id="edge31" class="edge">
<title>cc_net_text_normalizer&#45;&gt;cc_net_perplexity</title><style>.edge>path:hover{stroke-width:8}</style>
<path fill="none" stroke="black" d="M353.68,-272.58C316.45,-261.39 263.13,-245.19 216.67,-230.39 211.99,-228.9 207.13,-227.33 202.28,-225.75"/>
<polygon fill="#f36416" stroke="black" points="202.99,-222.3 192.39,-222.5 200.8,-228.95 202.99,-222.3"/>
</g>
<!-- cc_net_text_normalizer&#45;&gt;cc_net_tokenizer -->
<g id="edge32" class="edge">
<title>cc_net_text_normalizer&#45;&gt;cc_net_tokenizer</title><style>.edge>path:hover{stroke-width:8}</style>
<path fill="none" stroke="black" d="M404.95,-266.12C406.62,-258.18 408.55,-248.92 410.37,-240.25"/>
<polygon fill="#f36416" stroke="black" points="413.8,-240.96 412.42,-230.45 406.95,-239.52 413.8,-240.96"/>
</g>
<!-- cc_net_text_normalizer&#45;&gt;cc_net_tools_expand_corpus -->
<g id="edge33" class="edge">
<title>cc_net_text_normalizer&#45;&gt;cc_net_tools_expand_corpus</title><style>.edge>path:hover{stroke-width:8}</style>
<path fill="none" stroke="black" d="M340.11,-278.6C308.6,-271.27 272.07,-257.24 249.67,-230.39 218.88,-193.51 191.5,-151.8 230.67,-123.97"/>
</g>
<!-- bs4 -->
<g id="node18" class="node">
<title>bs4</title><style>.edge>path:hover{stroke-width:8}</style>
<polygon fill="#e50505" stroke="black" points="797.67,-603.24 794.67,-607.24 773.67,-607.24 770.67,-603.24 743.67,-603.24 743.67,-567.24 797.67,-567.24 797.67,-603.24"/>
<text text-anchor="middle" x="770.67" y="-582.74" font-family="Helvetica,sans-Serif" font-size="10.00" fill="#ffffff">bs4</text>
</g>
<!-- bs4&#45;&gt;cc_net_get_wiki_cirrus -->
<g id="edge1" class="edge">
<title>bs4&#45;&gt;cc_net_get_wiki_cirrus</title><style>.edge>path:hover{stroke-width:8}</style>
<path fill="none" stroke="black" d="M797.96,-581.79C859.18,-575.56 1003.31,-556.5 1018.67,-514.24"/>
<path fill="none" stroke="black" d="M1018.67,-512.24C1042.6,-446.37 815.39,-367.88 777.67,-308.82 764.48,-288.18 757.66,-261.14 754.18,-240.59"/>
<polygon fill="#e50505" stroke="black" points="757.61,-239.87 752.65,-230.51 750.69,-240.92 757.61,-239.87"/>
</g>
<!-- bs4&#45;&gt;cc_net_process_wet_file -->
<g id="edge2" class="edge">
<title>bs4&#45;&gt;cc_net_process_wet_file</title><style>.edge>path:hover{stroke-width:8}</style>
<path fill="none" stroke="black" d="M1018.67,-512.24C1020.49,-508.64 1147.62,-313.21 1196.13,-238.66"/>
<polygon fill="#e50505" stroke="black" points="1199.12,-240.48 1201.64,-230.19 1193.26,-236.66 1199.12,-240.48"/>
</g>
<!-- pandas -->
<g id="node27" class="node">
<title>pandas</title><style>.edge>path:hover{stroke-width:8}</style>
<polygon fill="#034895" stroke="black" points="298.67,-380.82 295.67,-384.82 274.67,-384.82 271.67,-380.82 244.67,-380.82 244.67,-344.82 298.67,-344.82 298.67,-380.82"/>
<text text-anchor="middle" x="271.67" y="-360.32" font-family="Helvetica,sans-Serif" font-size="10.00" fill="#ffffff">pandas</text>
</g>
<!-- bs4&#45;&gt;pandas -->
<g id="edge3" class="edge">
<title>bs4&#45;&gt;pandas</title><style>.edge>path:hover{stroke-width:8}</style>
<path fill="none" stroke="black" d="M743.45,-581.1C698.87,-575.29 608.1,-560.7 536.67,-531.24 480.92,-508.26 472.66,-491.43 421.67,-459.24 382.35,-434.43 337.37,-405.78 307,-386.4"/>
<polygon fill="#e50505" stroke="black" points="308.77,-383.37 298.45,-380.94 305,-389.27 308.77,-383.37"/>
</g>
<!-- chardet -->
<g id="node19" class="node">
<title>chardet</title><style>.edge>path:hover{stroke-width:8}</style>
<polygon fill="#b69953" stroke="black" points="747.67,-747.24 744.67,-751.24 723.67,-751.24 720.67,-747.24 693.67,-747.24 693.67,-711.24 747.67,-711.24 747.67,-747.24"/>
<text text-anchor="middle" x="720.67" y="-726.74" font-family="Helvetica,sans-Serif" font-size="10.00" fill="#000000">chardet</text>
</g>
<!-- chardet&#45;&gt;bs4 -->
<g id="edge34" class="edge">
<title>chardet&#45;&gt;bs4</title><style>.edge>path:hover{stroke-width:8}</style>
<path fill="none" stroke="black" d="M745.64,-711.21C767.46,-695.39 795.67,-672.23 795.67,-658.24"/>
<path fill="none" stroke="black" d="M795.67,-656.24C795.67,-641.23 790.5,-625.41 784.87,-612.61"/>
<polygon fill="#b69953" stroke="black" points="787.99,-611.02 780.55,-603.47 781.66,-614.01 787.99,-611.02"/>
</g>
<!-- charset_normalizer -->
<g id="node20" class="node">
<title>charset_normalizer</title><style>.edge>path:hover{stroke-width:8}</style>
<polygon fill="#b0b653" stroke="black" points="875.67,-747.24 872.67,-751.24 851.67,-751.24 848.67,-747.24 765.67,-747.24 765.67,-711.24 875.67,-711.24 875.67,-747.24"/>
<text text-anchor="middle" x="820.67" y="-726.74" font-family="Helvetica,sans-Serif" font-size="10.00" fill="#000000">charset_normalizer</text>
</g>
<!-- charset_normalizer&#45;&gt;bs4 -->
<g id="edge35" class="edge">
<title>charset_normalizer&#45;&gt;bs4</title><style>.edge>path:hover{stroke-width:8}</style>
<path fill="none" stroke="black" d="M810.78,-711.01C803.8,-697.2 795.67,-677.09 795.67,-658.24"/>
</g>
<!-- fasttext -->
<g id="node21" class="node">
<title>fasttext</title><style>.edge>path:hover{stroke-width:8}</style>
<polygon fill="#89b34c" stroke="black" points="749.17,-380.82 746.17,-384.82 725.17,-384.82 722.17,-380.82 694.17,-380.82 694.17,-344.82 749.17,-344.82 749.17,-380.82"/>
<text text-anchor="middle" x="721.67" y="-360.32" font-family="Helvetica,sans-Serif" font-size="10.00" fill="#000000">fasttext</text>
</g>
<!-- fasttext&#45;&gt;cc_net_split_by_lang -->
<g id="edge36" class="edge">
<title>fasttext&#45;&gt;cc_net_split_by_lang</title><style>.edge>path:hover{stroke-width:8}</style>
<path fill="none" stroke="black" d="M721.99,-344.73C721.55,-324.32 718.14,-289.99 701.67,-266.39 691,-251.11 674.71,-239.13 658.91,-230.23"/>
<polygon fill="#89b34c" stroke="black" points="660.18,-226.94 649.71,-225.34 656.9,-233.12 660.18,-226.94"/>
</g>
<!-- fasttext_pybind -->
<g id="node22" class="node">
<title>fasttext_pybind</title><style>.edge>path:hover{stroke-width:8}</style>
<polygon fill="#6bb653" stroke="black" points="787.17,-531.24 784.17,-535.24 763.17,-535.24 760.17,-531.24 694.17,-531.24 694.17,-495.24 787.17,-495.24 787.17,-531.24"/>
<text text-anchor="middle" x="740.67" y="-510.74" font-family="Helvetica,sans-Serif" font-size="10.00" fill="#000000">fasttext_pybind</text>
</g>
<!-- fasttext_pybind&#45;&gt;fasttext -->
<g id="edge37" class="edge">
<title>fasttext_pybind&#45;&gt;fasttext</title><style>.edge>path:hover{stroke-width:8}</style>
<path fill="none" stroke="black" d="M723.74,-495.07C711.73,-480.76 698.57,-459.48 703.67,-439.03"/>
</g>
<!-- func_argparse -->
<g id="node23" class="node">
<title>func_argparse</title><style>.edge>path:hover{stroke-width:8}</style>
<polygon fill="#10f92b" stroke="black" points="1094.67,-380.82 1091.67,-384.82 1070.67,-384.82 1067.67,-380.82 1008.67,-380.82 1008.67,-344.82 1094.67,-344.82 1094.67,-380.82"/>
<text text-anchor="middle" x="1051.67" y="-360.32" font-family="Helvetica,sans-Serif" font-size="10.00" fill="#000000">func_argparse</text>
</g>
<!-- func_argparse&#45;&gt;cc_net___main__ -->
<g id="edge38" class="edge">
<title>func_argparse&#45;&gt;cc_net___main__</title><style>.edge>path:hover{stroke-width:8}</style>
<path fill="none" stroke="black" d="M1117.67,-121.97C1107.15,-103.31 1107.66,-78.94 1110.52,-59.98"/>
<polygon fill="#10f92b" stroke="black" points="1113.98,-60.53 1112.3,-50.07 1107.09,-59.3 1113.98,-60.53"/>
</g>
<!-- func_argparse&#45;&gt;cc_net_get_wiki_cirrus -->
<g id="edge39" class="edge">
<title>func_argparse&#45;&gt;cc_net_get_wiki_cirrus</title><style>.edge>path:hover{stroke-width:8}</style>
<path fill="none" stroke="black" d="M1024.35,-344.68C991.92,-324.67 935.9,-291.17 885.67,-266.39 858.21,-252.85 826.66,-239.59 800.97,-229.36"/>
<polygon fill="#10f92b" stroke="black" points="802.02,-226.01 791.43,-225.59 799.45,-232.52 802.02,-226.01"/>
</g>
<!-- func_argparse&#45;&gt;cc_net_mine -->
<g id="edge40" class="edge">
<title>func_argparse&#45;&gt;cc_net_mine</title><style>.edge>path:hover{stroke-width:8}</style>
<path fill="none" stroke="black" d="M1117.67,-286.61C1130.12,-255 1133.08,-240.45 1117.67,-210.18"/>
<path fill="none" stroke="black" d="M1117.67,-208.18C1084.77,-143.57 994.86,-127.35 935.72,-123.93"/>
<polygon fill="#10f92b" stroke="black" points="935.57,-120.41 925.42,-123.44 935.24,-127.41 935.57,-120.41"/>
</g>
<!-- func_argparse&#45;&gt;cc_net_minify -->
<g id="edge41" class="edge">
<title>func_argparse&#45;&gt;cc_net_minify</title><style>.edge>path:hover{stroke-width:8}</style>
<path fill="none" stroke="black" d="M1073.97,-344.64C1089.42,-331.27 1108.76,-311.21 1117.67,-288.61"/>
<path fill="none" stroke="black" d="M1117.67,-286.61C1119.19,-282.74 1020.73,-246.72 961.76,-225.54"/>
<polygon fill="#10f92b" stroke="black" points="962.89,-222.23 952.3,-222.15 960.53,-228.82 962.89,-222.23"/>
</g>
<!-- func_argparse&#45;&gt;cc_net_process_wet_file -->
<g id="edge42" class="edge">
<title>func_argparse&#45;&gt;cc_net_process_wet_file</title><style>.edge>path:hover{stroke-width:8}</style>
<path fill="none" stroke="black" d="M1117.67,-286.61C1126.91,-263.15 1148.13,-245.12 1168.37,-232.47"/>
<polygon fill="#10f92b" stroke="black" points="1170.43,-235.32 1177.25,-227.21 1166.86,-229.3 1170.43,-235.32"/>
</g>
<!-- func_argparse&#45;&gt;cc_net_regroup -->
<g id="edge43" class="edge">
<title>func_argparse&#45;&gt;cc_net_regroup</title><style>.edge>path:hover{stroke-width:8}</style>
<path fill="none" stroke="black" d="M1117.67,-286.61C1127.42,-261.86 1103.21,-241.52 1078.92,-228.06"/>
<polygon fill="#10f92b" stroke="black" points="1080.52,-224.95 1070.04,-223.42 1077.28,-231.15 1080.52,-224.95"/>
</g>
<!-- func_argparse&#45;&gt;cc_net_tools_dl_cc_100 -->
<g id="edge44" class="edge">
<title>func_argparse&#45;&gt;cc_net_tools_dl_cc_100</title><style>.edge>path:hover{stroke-width:8}</style>
<path fill="none" stroke="black" d="M1117.67,-286.61C1147.62,-210.6 1238.9,-291.9 1292.67,-230.39 1324.29,-194.22 1317.15,-171.71 1311.67,-123.97"/>
</g>
<!-- func_argparse&#45;&gt;cc_net_tools_expand_corpus -->
<g id="edge45" class="edge">
<title>func_argparse&#45;&gt;cc_net_tools_expand_corpus</title><style>.edge>path:hover{stroke-width:8}</style>
<path fill="none" stroke="black" d="M1117.67,-208.18C1100.69,-174.83 1136.03,-156.58 1117.67,-123.97"/>
<path fill="none" stroke="black" d="M1117.67,-121.97C1093.98,-79.9 962.17,-52.84 878.23,-39.61"/>
<polygon fill="#10f92b" stroke="black" points="878.66,-36.14 868.24,-38.07 877.59,-43.06 878.66,-36.14"/>
</g>
<!-- func_argparse&#45;&gt;cc_net_tools_make_dmoz_corpus -->
<g id="edge46" class="edge">
<title>func_argparse&#45;&gt;cc_net_tools_make_dmoz_corpus</title><style>.edge>path:hover{stroke-width:8}</style>
<path fill="none" stroke="black" d="M1008.45,-360.52C908.23,-356.92 662.93,-344.61 589.67,-308.82 567.72,-298.1 524.35,-251.84 512.67,-230.39 501.22,-209.38 495.22,-183.2 492.09,-162.06"/>
<polygon fill="#10f92b" stroke="black" points="495.55,-161.58 490.77,-152.13 488.62,-162.5 495.55,-161.58"/>
</g>
<!-- kenlm -->
<g id="node24" class="node">
<title>kenlm</title><style>.edge>path:hover{stroke-width:8}</style>
<polygon fill="#47c281" stroke="black" points="188.67,-380.82 185.67,-384.82 164.67,-384.82 161.67,-380.82 134.67,-380.82 134.67,-344.82 188.67,-344.82 188.67,-380.82"/>
<text text-anchor="middle" x="161.67" y="-360.32" font-family="Helvetica,sans-Serif" font-size="10.00" fill="#000000">kenlm</text>
</g>
<!-- kenlm&#45;&gt;cc_net_perplexity -->
<g id="edge47" class="edge">
<title>kenlm&#45;&gt;cc_net_perplexity</title><style>.edge>path:hover{stroke-width:8}</style>
<path fill="none" stroke="black" d="M80.67,-286.61C73.53,-263.16 93.64,-243.59 114.82,-230.13"/>
<polygon fill="#47c281" stroke="black" points="116.76,-233.04 123.56,-224.92 113.18,-227.03 116.76,-233.04"/>
</g>
<!-- kenlm&#45;&gt;cc_net_tools_expand_corpus -->
<g id="edge48" class="edge">
<title>kenlm&#45;&gt;cc_net_tools_expand_corpus</title><style>.edge>path:hover{stroke-width:8}</style>
<path fill="none" stroke="black" d="M134.53,-347.8C114.28,-335.45 88.78,-315.26 80.67,-288.61"/>
<path fill="none" stroke="black" d="M80.67,-286.61C69.62,-250.31 19.57,-240.27 42.67,-210.18"/>
</g>
<!-- lxml -->
<g id="node25" class="node">
<title>lxml</title><style>.edge>path:hover{stroke-width:8}</style>
<polygon fill="#2fdbbc" stroke="black" points="389.67,-819.24 386.67,-823.24 365.67,-823.24 362.67,-819.24 335.67,-819.24 335.67,-783.24 389.67,-783.24 389.67,-819.24"/>
<text text-anchor="middle" x="362.67" y="-798.74" font-family="Helvetica,sans-Serif" font-size="10.00" fill="#000000">lxml</text>
</g>
<!-- lxml&#45;&gt;cc_net_tools_make_dmoz_corpus -->
<g id="edge50" class="edge">
<title>lxml&#45;&gt;cc_net_tools_make_dmoz_corpus</title><style>.edge>path:hover{stroke-width:8}</style>
<path fill="none" stroke="black" d="M335.46,-789.13C277.75,-763.65 145.79,-694.76 114.67,-586.24"/>
<path fill="none" stroke="black" d="M114.67,-584.24C79.87,-523.76 41.94,-525.37 19.67,-459.24 -7.73,-377.93 -6.71,-344.56 28.67,-266.39 33.51,-255.68 89.34,-193.59 99.67,-187.97 125.94,-173.65 297.81,-149.03 404.12,-134.87"/>
<polygon fill="#2fdbbc" stroke="black" points="404.74,-138.32 414.19,-133.53 403.82,-131.38 404.74,-138.32"/>
</g>
<!-- lxml&#45;&gt;bs4 -->
<g id="edge49" class="edge">
<title>lxml&#45;&gt;bs4</title><style>.edge>path:hover{stroke-width:8}</style>
<path fill="none" stroke="black" d="M389.75,-786.84C435.22,-764.26 529.68,-717 608.67,-675.24 652.36,-652.15 702.12,-624.63 734.83,-606.37"/>
<polygon fill="#2fdbbc" stroke="black" points="736.56,-609.41 743.58,-601.47 733.14,-603.3 736.56,-609.41"/>
</g>
<!-- lxml&#45;&gt;pandas -->
<g id="edge51" class="edge">
<title>lxml&#45;&gt;pandas</title><style>.edge>path:hover{stroke-width:8}</style>
<path fill="none" stroke="black" d="M114.67,-584.24C89.78,-501.34 182.04,-423.59 235.71,-386.52"/>
<polygon fill="#2fdbbc" stroke="black" points="237.97,-389.22 244.29,-380.72 234.04,-383.42 237.97,-389.22"/>
</g>
<!-- numpy -->
<g id="node26" class="node">
<title>numpy</title><style>.edge>path:hover{stroke-width:8}</style>
<polygon fill="#037c95" stroke="black" points="571.67,-603.24 568.67,-607.24 547.67,-607.24 544.67,-603.24 517.67,-603.24 517.67,-567.24 571.67,-567.24 571.67,-603.24"/>
<text text-anchor="middle" x="544.67" y="-582.74" font-family="Helvetica,sans-Serif" font-size="10.00" fill="#ffffff">numpy</text>
</g>
<!-- numpy&#45;&gt;cc_net_dedup -->
<g id="edge52" class="edge">
<title>numpy&#45;&gt;cc_net_dedup</title><style>.edge>path:hover{stroke-width:8}</style>
<path fill="none" stroke="black" d="M326.67,-512.24C317.36,-489.73 337.53,-483.41 340.67,-459.24 347.21,-408.81 350.64,-394.69 340.67,-344.82 337.27,-327.82 330.66,-325.42 325.67,-308.82 318.5,-285.04 313.43,-257.19 310.34,-237.16"/>
<polygon fill="#037c95" stroke="black" points="313.79,-236.57 308.86,-227.19 306.86,-237.59 313.79,-236.57"/>
</g>
<!-- numpy&#45;&gt;cc_net_flat_hash_set -->
<g id="edge53" class="edge">
<title>numpy&#45;&gt;cc_net_flat_hash_set</title><style>.edge>path:hover{stroke-width:8}</style>
<path fill="none" stroke="black" d="M537.9,-567.02C528.42,-542.85 511.02,-498.54 499.4,-468.93"/>
<polygon fill="#037c95" stroke="black" points="502.61,-467.53 495.7,-459.5 496.1,-470.09 502.61,-467.53"/>
</g>
<!-- numpy&#45;&gt;cc_net_jsonql -->
<g id="edge54" class="edge">
<title>numpy&#45;&gt;cc_net_jsonql</title><style>.edge>path:hover{stroke-width:8}</style>
<path fill="none" stroke="black" d="M567.77,-567.15C585.17,-553.73 609.12,-534.06 627.67,-514.24"/>
<path fill="none" stroke="black" d="M627.67,-512.24C652.72,-485.48 661.14,-475.41 665.67,-439.03"/>
<path fill="none" stroke="black" d="M665.67,-437.03C670.95,-394.52 661.15,-345.24 653.49,-315.52"/>
<polygon fill="#037c95" stroke="black" points="656.77,-314.26 650.8,-305.51 650.01,-316.07 656.77,-314.26"/>
</g>
<!-- numpy&#45;&gt;cc_net_minify -->
<g id="edge55" class="edge">
<title>numpy&#45;&gt;cc_net_minify</title><style>.edge>path:hover{stroke-width:8}</style>
<path fill="none" stroke="black" d="M571.8,-577.25C584.48,-574.05 599.81,-570.31 613.67,-567.24 694.6,-549.32 732.85,-584.15 796.67,-531.24 888.9,-454.77 911.51,-300.55 916.96,-237.74"/>
<polygon fill="#037c95" stroke="black" points="920.48,-237.69 917.77,-227.45 913.5,-237.14 920.48,-237.69"/>
</g>
<!-- numpy&#45;&gt;cc_net_perplexity -->
<g id="edge56" class="edge">
<title>numpy&#45;&gt;cc_net_perplexity</title><style>.edge>path:hover{stroke-width:8}</style>
<path fill="none" stroke="black" d="M326.67,-437.03C319.37,-395.83 324.15,-383.28 307.67,-344.82 295.69,-316.87 287.66,-312.35 268.67,-288.61"/>
</g>
<!-- numpy&#45;&gt;cc_net_regroup -->
<g id="edge57" class="edge">
<title>numpy&#45;&gt;cc_net_regroup</title><style>.edge>path:hover{stroke-width:8}</style>
<path fill="none" stroke="black" d="M571.76,-577.07C584.44,-573.84 599.77,-570.12 613.67,-567.24 782.86,-532.22 980.67,-611.81 980.67,-439.03 980.67,-439.03 980.67,-439.03 980.67,-361.82 980.67,-315.12 1004.64,-265.21 1021.49,-235.9"/>
<polygon fill="#037c95" stroke="black" points="1024.6,-237.53 1026.68,-227.14 1018.57,-233.96 1024.6,-237.53"/>
</g>
<!-- numpy&#45;&gt;fasttext -->
<g id="edge58" class="edge">
<title>numpy&#45;&gt;fasttext</title><style>.edge>path:hover{stroke-width:8}</style>
<path fill="none" stroke="black" d="M627.67,-512.24C659.72,-478 692.32,-484.54 703.67,-439.03"/>
<path fill="none" stroke="black" d="M703.67,-437.03C707.47,-421.75 711.68,-404.66 715.07,-390.84"/>
<polygon fill="#037c95" stroke="black" points="718.5,-391.53 717.48,-380.99 711.7,-389.87 718.5,-391.53"/>
</g>
<!-- numpy&#45;&gt;pandas -->
<g id="edge59" class="edge">
<title>numpy&#45;&gt;pandas</title><style>.edge>path:hover{stroke-width:8}</style>
<path fill="none" stroke="black" d="M517.65,-580.57C462.66,-572.38 341.62,-550.43 326.67,-514.24"/>
<path fill="none" stroke="black" d="M326.67,-512.24C314.23,-482.17 332.34,-471.07 326.67,-439.03"/>
<path fill="none" stroke="black" d="M326.67,-437.03C323.35,-418.32 311.14,-401.12 299.06,-388.1"/>
<polygon fill="#037c95" stroke="black" points="301.54,-385.62 292.04,-380.93 296.54,-390.52 301.54,-385.62"/>
</g>
<!-- pandas&#45;&gt;cc_net_perplexity -->
<g id="edge60" class="edge">
<title>pandas&#45;&gt;cc_net_perplexity</title><style>.edge>path:hover{stroke-width:8}</style>
<path fill="none" stroke="black" d="M276.2,-344.75C279.42,-328.51 281.22,-304.3 268.67,-288.61"/>
<path fill="none" stroke="black" d="M268.67,-286.61C249.25,-262.33 220.05,-242.86 196.19,-229.65"/>
<polygon fill="#034895" stroke="black" points="197.81,-226.54 187.34,-224.89 194.49,-232.71 197.81,-226.54"/>
</g>
<!-- psutil -->
<g id="node28" class="node">
<title>psutil</title><style>.edge>path:hover{stroke-width:8}</style>
<polygon fill="#04169f" stroke="black" points="692.67,-891.24 689.67,-895.24 668.67,-895.24 665.67,-891.24 638.67,-891.24 638.67,-855.24 692.67,-855.24 692.67,-891.24"/>
<text text-anchor="middle" x="665.67" y="-870.74" font-family="Helvetica,sans-Serif" font-size="10.00" fill="#ffffff">psutil</text>
</g>
<!-- psutil&#45;&gt;cc_net_jsonql -->
<g id="edge61" class="edge">
<title>psutil&#45;&gt;cc_net_jsonql</title><style>.edge>path:hover{stroke-width:8}</style>
<path fill="none" stroke="black" d="M665.67,-800.24C627.39,-679.03 649.31,-640.3 665.67,-514.24"/>
</g>
<!-- psutil&#45;&gt;numpy -->
<g id="edge62" class="edge">
<title>psutil&#45;&gt;numpy</title><style>.edge>path:hover{stroke-width:8}</style>
<path fill="none" stroke="black" d="M669.12,-855.17C671.28,-840.57 672.51,-819.27 665.67,-802.24"/>
<path fill="none" stroke="black" d="M665.67,-800.24C629.22,-709.53 530.09,-761.82 484.67,-675.24 477.23,-661.08 478.09,-653.83 484.67,-639.24 490.08,-627.25 499.69,-616.87 509.66,-608.57"/>
<polygon fill="#04169f" stroke="black" points="511.91,-611.25 517.66,-602.35 507.62,-605.72 511.91,-611.25"/>
</g>
<!-- regex -->
<g id="node29" class="node">
<title>regex</title><style>.edge>path:hover{stroke-width:8}</style>
<polygon fill="#5e40c0" stroke="black" points="599.67,-531.24 596.67,-535.24 575.67,-535.24 572.67,-531.24 545.67,-531.24 545.67,-495.24 599.67,-495.24 599.67,-531.24"/>
<text text-anchor="middle" x="572.67" y="-510.74" font-family="Helvetica,sans-Serif" font-size="10.00" fill="#ffffff">regex</text>
</g>
<!-- sacremoses -->
<g id="node30" class="node">
<title>sacremoses</title><style>.edge>path:hover{stroke-width:8}</style>
<polygon fill="#7820b6" stroke="black" points="604.17,-380.82 601.17,-384.82 580.17,-384.82 577.17,-380.82 529.17,-380.82 529.17,-344.82 604.17,-344.82 604.17,-380.82"/>
<text text-anchor="middle" x="566.67" y="-360.32" font-family="Helvetica,sans-Serif" font-size="10.00" fill="#ffffff">sacremoses</text>
</g>
<!-- regex&#45;&gt;sacremoses -->
<g id="edge63" class="edge">
<title>regex&#45;&gt;sacremoses</title><style>.edge>path:hover{stroke-width:8}</style>
<path fill="none" stroke="black" d="M571.98,-495.22C570.95,-469.85 569.01,-421.88 567.78,-391.45"/>
<polygon fill="#5e40c0" stroke="black" points="571.27,-390.95 567.36,-381.1 564.27,-391.24 571.27,-390.95"/>
</g>
<!-- sacremoses&#45;&gt;cc_net_tokenizer -->
<g id="edge64" class="edge">
<title>sacremoses&#45;&gt;cc_net_tokenizer</title><style>.edge>path:hover{stroke-width:8}</style>
<path fill="none" stroke="black" d="M559.31,-344.65C549.88,-324.15 531.94,-289.72 508.67,-266.39 493.83,-251.52 474.32,-238.89 457.09,-229.38"/>
<polygon fill="#7820b6" stroke="black" points="458.27,-226.05 447.79,-224.43 454.98,-232.22 458.27,-226.05"/>
</g>
<!-- sentencepiece -->
<g id="node31" class="node">
<title>sentencepiece</title><style>.edge>path:hover{stroke-width:8}</style>
<polygon fill="#b42fbc" stroke="black" points="116.17,-380.82 113.17,-384.82 92.17,-384.82 89.17,-380.82 29.17,-380.82 29.17,-344.82 116.17,-344.82 116.17,-380.82"/>
<text text-anchor="middle" x="72.67" y="-360.32" font-family="Helvetica,sans-Serif" font-size="10.00" fill="#ffffff">sentencepiece</text>
</g>
<!-- sentencepiece&#45;&gt;cc_net_perplexity -->
<g id="edge65" class="edge">
<title>sentencepiece&#45;&gt;cc_net_perplexity</title><style>.edge>path:hover{stroke-width:8}</style>
<path fill="none" stroke="black" d="M42.67,-286.61C44.84,-268.95 83.35,-245.71 114.81,-229.51"/>
<polygon fill="#b42fbc" stroke="black" points="116.54,-232.56 123.89,-224.93 113.38,-226.32 116.54,-232.56"/>
</g>
<!-- sentencepiece&#45;&gt;cc_net_tools_expand_corpus -->
<g id="edge66" class="edge">
<title>sentencepiece&#45;&gt;cc_net_tools_expand_corpus</title><style>.edge>path:hover{stroke-width:8}</style>
<path fill="none" stroke="black" d="M60.01,-344.79C50.74,-330.39 40.17,-308.92 42.67,-288.61"/>
<path fill="none" stroke="black" d="M42.67,-286.61C46.81,-252.89 21.98,-237.12 42.67,-210.18"/>
</g>
<!-- submitit -->
<g id="node32" class="node">
<title>submitit</title><style>.edge>path:hover{stroke-width:8}</style>
<polygon fill="#8a0f66" stroke="black" points="86.17,-456.03 83.17,-460.03 62.17,-460.03 59.17,-456.03 29.17,-456.03 29.17,-420.03 86.17,-420.03 86.17,-456.03"/>
<text text-anchor="middle" x="57.67" y="-435.53" font-family="Helvetica,sans-Serif" font-size="10.00" fill="#ffffff">submitit</text>
</g>
<!-- submitit&#45;&gt;cc_net_execution -->
<g id="edge67" class="edge">
<title>submitit&#45;&gt;cc_net_execution</title><style>.edge>path:hover{stroke-width:8}</style>
<path fill="none" stroke="black" d="M86.2,-423.21C91,-421 95.95,-418.8 100.67,-416.82 143.07,-399.02 158.63,-405.12 197.67,-380.82 217.41,-368.52 214.4,-354.26 235.67,-344.82 330.6,-302.68 598.5,-320.81 701.67,-308.82 727.57,-305.81 756.23,-301.46 780.03,-297.57"/>
<polygon fill="#8a0f66" stroke="black" points="780.62,-301.02 789.92,-295.94 779.48,-294.11 780.62,-301.02"/>
</g>
<!-- submitit&#45;&gt;cc_net_tools_expand_corpus -->
<g id="edge68" class="edge">
<title>submitit&#45;&gt;cc_net_tools_expand_corpus</title><style>.edge>path:hover{stroke-width:8}</style>
<path fill="none" stroke="black" d="M41.98,-419.74C33.58,-409.29 24.08,-395.24 19.67,-380.82 -2.75,-307.65 -3.93,-270.88 42.67,-210.18"/>
<path fill="none" stroke="black" d="M42.67,-208.18C50.12,-196.39 54.68,-195.09 66.67,-187.97 133.93,-148.01 167.14,-169.65 230.67,-123.97"/>
<path fill="none" stroke="black" d="M230.67,-121.97C310.08,-64.88 597.29,-41.61 734.15,-33.6"/>
<polygon fill="#8a0f66" stroke="black" points="734.76,-37.07 744.54,-33 734.36,-30.08 734.76,-37.07"/>
</g>
<!-- typing_extensions -->
<g id="node33" class="node">
<title>typing_extensions</title><style>.edge>path:hover{stroke-width:8}</style>
<polygon fill="#ce3b6f" stroke="black" points="599.67,-675.24 596.67,-679.24 575.67,-679.24 572.67,-675.24 493.67,-675.24 493.67,-639.24 599.67,-639.24 599.67,-675.24"/>
<text text-anchor="middle" x="546.67" y="-654.74" font-family="Helvetica,sans-Serif" font-size="10.00" fill="#ffffff">typing_extensions</text>
</g>
<!-- typing_extensions&#45;&gt;cc_net_execution -->
<g id="edge69" class="edge">
<title>typing_extensions&#45;&gt;cc_net_execution</title><style>.edge>path:hover{stroke-width:8}</style>
<path fill="none" stroke="black" d="M627.67,-584.24C692.05,-538.96 745.65,-591.19 796.67,-531.24 848.17,-470.72 843.16,-369.41 836.68,-319"/>
<polygon fill="#ce3b6f" stroke="black" points="840.14,-318.47 835.29,-309.05 833.21,-319.44 840.14,-318.47"/>
</g>
<!-- typing_extensions&#45;&gt;cc_net_jsonql -->
<g id="edge70" class="edge">
<title>typing_extensions&#45;&gt;cc_net_jsonql</title><style>.edge>path:hover{stroke-width:8}</style>
<path fill="none" stroke="black" d="M564.47,-639.02C580.34,-624.13 604.56,-602.5 627.67,-586.24"/>
<path fill="none" stroke="black" d="M627.67,-584.24C656.62,-563.88 661.11,-549.35 665.67,-514.24"/>
<path fill="none" stroke="black" d="M665.67,-512.24C669.85,-479.98 662.29,-471.4 665.67,-439.03"/>
</g>
<!-- typing_extensions&#45;&gt;submitit -->
<g id="edge71" class="edge">
<title>typing_extensions&#45;&gt;submitit</title><style>.edge>path:hover{stroke-width:8}</style>
<path fill="none" stroke="black" d="M508.29,-639.2C416.84,-598.58 186.86,-496.42 95.72,-455.94"/>
<polygon fill="#ce3b6f" stroke="black" points="96.89,-452.62 86.33,-451.76 94.05,-459.02 96.89,-452.62"/>
</g>
</g>
</svg>
